<?xml version="1.0" encoding="utf-8"?>
<!-- Generator: Adobe Illustrator 28.0.0, SVG Export Plug-In . SVG Version: 6.00 Build 0)  -->
<svg version="1.1" xmlns="http://www.w3.org/2000/svg" xmlns:xlink="http://www.w3.org/1999/xlink" x="0px" y="0px"
	 viewBox="0 0 128 128" style="enable-background:new 0 0 128 128;" xml:space="preserve">
<style type="text/css">
	.st0{fill:#616E7D;}
	.st1{fill:#FFFFFF;}
	.st2{fill:#AAD4C8;}
</style>
<g id="Bg">
</g>
<g id="Object">
	<g>
		<path class="st0" d="M48.99,64.14c0-13.51-10.99-24.5-24.49-24.5C10.99,39.64,0,50.63,0,64.14c0,11.01,7.3,20.34,17.32,23.42
			c0.51,1.56,1.08,3.1,1.77,4.61c4.89,10.74,13.67,18.93,24.73,23.07h0.01c11.06,4.14,23.06,3.72,33.8-1.17
			c1.26-0.58,2.49-1.21,3.68-1.89l4.73,10.38l15.11-27.36l-30.52-6.44l6.09,13.36c-1.17,0.72-2.38,1.39-3.64,1.97
			c-8.06,3.67-17.08,3.98-25.38,0.88c-8.14-3.05-14.62-9.01-18.34-16.8C40.54,85.89,48.99,75.99,48.99,64.14z M24.76,82.97
			c-10.41,0-18.84-8.43-18.84-18.84c0-10.4,8.43-18.84,18.84-18.84c10.4,0,18.83,8.43,18.83,18.84
			C43.59,74.54,35.16,82.97,24.76,82.97z"/>
		<path class="st1" d="M24.09,78.51h2.16c0.65,0,1.18-0.53,1.18-1.17v-2c1.72-0.26,3.23-0.8,4.5-1.63c2.01-1.33,3.04-3.16,3.09-5.49
			c0.03-1.46-0.37-2.7-1.21-3.71c-1.36-1.63-3.49-2.64-6.38-3.05v-4.06c0.51,0.24,1,0.56,1.47,0.97c0.29,0.24,0.62,0.36,1.01,0.37
			c0.31,0,0.73-0.22,0.73-0.22l0.01,0l2.42-1.51c0.33-0.21,0.5-0.48,0.5-0.8c0.01-0.26-0.1-0.49-0.32-0.68
			c-1.51-1.71-3.45-2.78-5.82-3.19v-2.28c0-0.65-0.53-1.18-1.18-1.18h-2.16c-0.65,0-1.17,0.53-1.17,1.18v2.22
			c-1.12,0.15-2.13,0.44-3.02,0.85c-2.9,1.32-4.32,3.3-4.27,5.92c0.03,1.29,0.41,2.43,1.16,3.42c1.26,1.69,3.3,2.75,6.13,3.19v5.07
			c-1.22-0.43-2.38-1.24-3.47-2.41c-0.24-0.31-0.56-0.47-0.95-0.47c-0.22,0-0.64,0.19-0.64,0.19l-0.01,0l-2.2,1.29
			c-0.38,0.22-0.56,0.51-0.55,0.86c0,0.23,0.09,0.44,0.26,0.63c0.57,0.8,1.34,1.56,2.3,2.29c1.55,1.2,3.31,1.94,5.26,2.25v2
			C22.92,77.98,23.44,78.51,24.09,78.51z M27.42,66.17c1.17,0.37,1.75,1.04,1.75,2.04c-0.01,0.93-0.43,1.65-1.27,2.16l-0.47,0.25
			V66.17z M21.49,59.03c0-0.73,0.41-1.29,1.26-1.69l0.16-0.06v3.6C21.98,60.51,21.5,59.9,21.49,59.03z"/>
		<path class="st2" d="M21.49,59.03c0.01,0.87,0.48,1.48,1.42,1.84v-3.6l-0.16,0.06C21.91,57.74,21.49,58.3,21.49,59.03z"/>
		<path class="st2" d="M27.42,70.62l0.47-0.25c0.84-0.51,1.26-1.23,1.27-2.16c0.01-1-0.58-1.68-1.75-2.04V70.62z"/>
		<path class="st2" d="M24.76,45.3c-10.41,0-18.84,8.43-18.84,18.84c0,10.4,8.43,18.84,18.84,18.84c10.4,0,18.83-8.43,18.83-18.84
			C43.59,53.74,35.16,45.3,24.76,45.3z M31.93,73.69c-1.27,0.84-2.78,1.38-4.5,1.63v2c0,0.65-0.53,1.17-1.18,1.17h-2.16
			c-0.65,0-1.17-0.53-1.17-1.17v-2c-1.95-0.31-3.71-1.06-5.26-2.25c-0.96-0.73-1.73-1.5-2.3-2.29c-0.17-0.19-0.25-0.39-0.26-0.63
			c-0.01-0.36,0.18-0.64,0.55-0.86l2.2-1.29l0.01,0c0,0,0.43-0.19,0.64-0.19c0.4,0,0.71,0.16,0.95,0.47
			c1.09,1.18,2.24,1.98,3.47,2.41v-5.07c-2.83-0.44-4.88-1.5-6.13-3.19c-0.75-0.99-1.14-2.14-1.16-3.42
			c-0.05-2.62,1.37-4.6,4.27-5.92c0.9-0.41,1.91-0.69,3.02-0.85v-2.22c0-0.65,0.53-1.18,1.17-1.18h2.16c0.65,0,1.18,0.53,1.18,1.18
			v2.28c2.37,0.41,4.32,1.48,5.82,3.19c0.21,0.2,0.32,0.42,0.32,0.68c0,0.32-0.17,0.59-0.5,0.8l-2.42,1.51l-0.01,0
			c0,0-0.42,0.22-0.73,0.22c-0.39,0-0.72-0.13-1.01-0.37c-0.47-0.41-0.96-0.73-1.47-0.97v4.06c2.89,0.4,5.02,1.42,6.38,3.05
			c0.84,1.02,1.25,2.26,1.21,3.71C34.97,70.54,33.94,72.37,31.93,73.69z"/>
		<path class="st0" d="M79.01,64.14c0,13.51,10.99,24.5,24.49,24.5c13.51,0,24.5-10.99,24.5-24.5c0-11.8-8.38-21.67-19.51-23.98
			c-0.49-1.46-1.04-2.91-1.68-4.32c-4.9-10.74-13.68-18.93-24.73-23.07l-0.01,0c-11.06-4.13-23.06-3.72-33.8,1.18
			c-1.26,0.58-2.49,1.21-3.68,1.89L39.87,5.45L24.76,32.81l30.51,6.45L49.18,25.9c1.17-0.72,2.38-1.4,3.64-1.97
			c8.06-3.67,17.08-3.98,25.38-0.88c8.33,3.12,14.94,9.27,18.62,17.33c0.03,0.06,0.05,0.13,0.07,0.19
			C86.6,43.46,79.01,52.92,79.01,64.14z M103.76,45.3c10.4,0,18.83,8.43,18.83,18.84c0,10.4-8.43,18.84-18.83,18.84
			c-10.4,0-18.83-8.43-18.83-18.84C84.93,53.74,93.36,45.3,103.76,45.3z"/>
		<polygon class="st2" points="108.18,60.16 108.17,60.1 108.18,60.16 108.18,60.16 		"/>
		<path class="st2" d="M84.93,64.14c0,10.4,8.43,18.84,18.83,18.84c10.4,0,18.83-8.43,18.83-18.84c0-10.4-8.43-18.84-18.83-18.84
			C93.36,45.3,84.93,53.74,84.93,64.14z M108.34,51.41c0.73,0.09,1.38,0.21,1.97,0.36c0.59,0.15,1.08,0.3,1.48,0.46
			c0.39,0.16,0.67,0.29,0.89,0.43l0.04,0.03l0.03,0.03l0.4,0.37l0.03,0.06c0.11,0.17,0.18,0.36,0.24,0.56V53.7l0,0.02
			c0.05,0.2,0.09,0.43,0.12,0.7v0c0.03,0.28,0.05,0.61,0.05,0.99c0,0.34-0.02,0.62-0.05,0.85v0c-0.04,0.24-0.09,0.46-0.2,0.66
			l-0.03,0.06l-0.05,0.05l-0.35,0.38l-0.16,0.04l-0.38,0.08h-0.06c-0.36,0-0.71-0.12-1.07-0.31l-0.01,0
			c-0.29-0.16-0.66-0.33-1.11-0.52c-0.43-0.18-0.95-0.35-1.57-0.51c-0.59-0.15-1.3-0.22-2.12-0.22c-0.78,0-1.44,0.09-1.99,0.25
			c-0.56,0.17-1.02,0.41-1.4,0.71c-0.39,0.31-0.71,0.68-0.95,1.12c-0.15,0.27-0.28,0.57-0.39,0.89h5.34l0.06,0.01l0.45,0.11
			l0.11,0.12l0.28,0.3l0.03,0.07c0.09,0.18,0.15,0.37,0.19,0.59l-0.01-0.05l0.01,0.06v0c0.05,0.24,0.06,0.51,0.06,0.81
			c-0.01,0.6-0.05,1.05-0.27,1.44c-0.18,0.33-0.57,0.6-0.98,0.59h-5.93c0,0.02,0,0.04,0,0.07v-0.01c-0.01,0.19-0.01,0.4-0.01,0.63
			c0,0.2,0.01,0.4,0.01,0.6v0c0,0.04,0,0.09,0.01,0.14h5.99l0.07,0.02l0.44,0.12l0.1,0.11l0.28,0.3l0.03,0.06
			c0.09,0.18,0.15,0.38,0.19,0.6v0l-0.01-0.04l0.01,0.03v0v0v0c0.05,0.24,0.06,0.5,0.06,0.79c0,0.59-0.05,1.04-0.26,1.43v0v0
			c-0.18,0.34-0.57,0.63-0.99,0.62h-5.32c0.09,0.29,0.21,0.57,0.36,0.82l0,0c0.24,0.42,0.55,0.76,0.95,1.05
			c0.4,0.29,0.9,0.52,1.51,0.68c0.61,0.16,1.35,0.25,2.24,0.25c0.83,0,1.53-0.08,2.11-0.23c0.61-0.16,1.14-0.34,1.57-0.53
			c0.46-0.2,0.84-0.38,1.13-0.53c0.36-0.18,0.68-0.31,1.03-0.31h0.06l0.06,0.01l0.48,0.11l0.11,0.13l0.29,0.33l0.03,0.07
			c0.1,0.22,0.15,0.45,0.19,0.73v0c0.03,0.28,0.05,0.61,0.05,1.03c0,0.56-0.06,1.03-0.21,1.42v0c-0.14,0.37-0.35,0.69-0.64,0.92
			c-0.26,0.21-0.6,0.4-1,0.58l0,0c-0.42,0.18-0.92,0.35-1.5,0.51c-0.59,0.16-1.25,0.28-1.99,0.38c-0.75,0.1-1.57,0.15-2.46,0.15
			c-1.68,0-3.19-0.17-4.51-0.53c-1.32-0.36-2.47-0.88-3.43-1.56c-0.96-0.69-1.75-1.54-2.35-2.54c-0.52-0.88-0.89-1.87-1.15-2.95
			h-1.7c-0.42,0.01-0.81-0.28-0.99-0.61l0,0c-0.21-0.39-0.26-0.84-0.26-1.43c0-0.28,0.01-0.54,0.04-0.76c0,0,0,0,0,0v0v0
			c0.03-0.22,0.07-0.42,0.15-0.61l0.03-0.06l0.04-0.05l0.31-0.38l0.17-0.05l0.36-0.1h0.07h1.4v0c-0.01-0.21-0.01-0.41-0.01-0.6
			c0-0.24,0-0.48,0.01-0.72v0c0-0.04,0-0.08,0-0.12h-1.4c-0.2,0-0.41-0.05-0.59-0.17c-0.18-0.12-0.3-0.29-0.38-0.46
			c-0.16-0.37-0.2-0.8-0.2-1.39c0-0.3,0.02-0.57,0.06-0.81v0c0.04-0.23,0.11-0.44,0.22-0.62l0.03-0.05l0.04-0.05l0.34-0.35
			l0.15-0.04l0.35-0.09h0.06h1.87c0.3-1.02,0.68-1.99,1.21-2.86c0.6-1,1.36-1.87,2.3-2.59c0.94-0.73,2.06-1.28,3.34-1.67
			c1.29-0.39,2.79-0.58,4.48-0.58C106.85,51.27,107.61,51.32,108.34,51.41z"/>
		<polygon class="st2" points="108.18,60.16 108.18,60.16 108.18,60.16 		"/>
		<path class="st1" d="M92.8,64.44h-0.07l-0.36,0.1l-0.17,0.05l-0.31,0.38l-0.04,0.05l-0.03,0.06c-0.09,0.19-0.12,0.39-0.15,0.61
			c-0.02,0.22-0.04,0.47-0.04,0.76c0.01,0.59,0.05,1.04,0.26,1.43l0,0c0.18,0.34,0.56,0.63,0.99,0.61h1.7
			c0.26,1.07,0.63,2.07,1.15,2.95c0.6,1,1.38,1.86,2.35,2.54c0.96,0.69,2.11,1.21,3.43,1.56c1.32,0.36,2.83,0.53,4.51,0.53
			c0.89,0,1.72-0.05,2.46-0.15c0.74-0.1,1.41-0.22,1.99-0.38c0.58-0.15,1.08-0.32,1.5-0.51l0,0c0.41-0.18,0.74-0.37,1-0.58
			c0.29-0.24,0.5-0.56,0.64-0.92v0c0.15-0.4,0.21-0.86,0.21-1.42c0-0.42-0.01-0.75-0.05-1.03v0c-0.04-0.28-0.09-0.51-0.19-0.73
			l-0.03-0.07l-0.29-0.33l-0.11-0.13l-0.48-0.11l-0.06-0.01h-0.06c-0.35,0-0.67,0.13-1.03,0.31c-0.29,0.16-0.67,0.33-1.13,0.53
			c-0.43,0.19-0.96,0.36-1.57,0.53c-0.57,0.15-1.28,0.23-2.11,0.23c-0.88,0-1.63-0.09-2.24-0.25c-0.61-0.17-1.11-0.4-1.51-0.68
			c-0.4-0.29-0.72-0.63-0.95-1.05l0,0c-0.15-0.25-0.26-0.53-0.36-0.82h5.32c0.42,0.01,0.81-0.28,0.99-0.62
			c0.21-0.39,0.26-0.84,0.26-1.43c0-0.29-0.02-0.56-0.06-0.79c-0.04-0.23-0.1-0.42-0.19-0.6l-0.03-0.06l-0.28-0.3l-0.1-0.11
			l-0.44-0.12l-0.07-0.02h-5.99c0-0.05-0.01-0.09-0.01-0.14v0c-0.01-0.2-0.01-0.4-0.01-0.6c0-0.23,0.01-0.44,0.01-0.63v0.01
			c0-0.02,0-0.04,0-0.07h5.93c0.41,0.01,0.8-0.25,0.98-0.59c0.22-0.39,0.26-0.84,0.27-1.44c0-0.3-0.02-0.57-0.06-0.81
			c-0.04-0.22-0.1-0.42-0.19-0.6l-0.03-0.07l-0.28-0.3l-0.11-0.12l-0.45-0.11l-0.06-0.01h-5.34c0.11-0.32,0.23-0.62,0.39-0.89
			c0.24-0.44,0.56-0.81,0.95-1.12c0.39-0.31,0.85-0.55,1.4-0.71c0.55-0.17,1.21-0.25,1.99-0.25c0.83,0,1.54,0.08,2.12,0.22
			c0.62,0.15,1.14,0.33,1.57,0.51c0.45,0.19,0.82,0.37,1.11,0.52l0.01,0c0.36,0.19,0.7,0.31,1.07,0.31h0.06l0.38-0.08l0.16-0.04
			l0.35-0.38l0.05-0.05l0.03-0.06c0.11-0.21,0.16-0.42,0.2-0.66v0c0.03-0.24,0.05-0.52,0.05-0.85c0-0.38-0.02-0.71-0.05-0.99v0
			c-0.03-0.27-0.07-0.5-0.12-0.7l0-0.02v0.01c-0.05-0.2-0.13-0.39-0.24-0.56l-0.03-0.06l-0.4-0.37l-0.03-0.03l-0.04-0.03
			c-0.22-0.14-0.5-0.28-0.89-0.43c-0.4-0.16-0.89-0.31-1.48-0.46c-0.59-0.15-1.25-0.27-1.97-0.36c-0.73-0.09-1.49-0.14-2.26-0.14
			c-1.69,0-3.18,0.19-4.48,0.58c-1.28,0.39-2.4,0.94-3.34,1.67c-0.93,0.72-1.7,1.58-2.3,2.59c-0.52,0.87-0.91,1.83-1.21,2.86h-1.87
			h-0.06l-0.35,0.09l-0.15,0.04l-0.34,0.35l-0.04,0.05l-0.03,0.05c-0.11,0.19-0.17,0.39-0.22,0.62v0c-0.04,0.24-0.06,0.51-0.06,0.81
			c0.01,0.59,0.04,1.02,0.2,1.39c0.08,0.18,0.2,0.34,0.38,0.46C92.39,62.95,92.6,63,92.8,63h1.4c0,0.04,0,0.08,0,0.12v0
			c-0.01,0.24-0.01,0.48-0.01,0.72c0,0.19,0,0.39,0.01,0.6v0H92.8z"/>
		<polygon class="st1" points="107.98,67.87 107.98,67.88 107.98,67.88 		"/>
		<polygon class="st1" points="91.67,65.69 91.67,65.7 91.67,65.69 		"/>
		<polygon class="st1" points="108.18,60.16 108.18,60.16 108.17,60.1 108.18,60.16 		"/>
		<polygon class="st1" points="108.18,65.65 108.18,65.62 108.18,65.66 		"/>
		<polygon class="st1" points="108.18,65.66 108.18,65.66 108.18,65.66 		"/>
	</g>
</g>
</svg>
